<svg id="Layer_1" data-name="Layer 1" xmlns="http://www.w3.org/2000/svg" viewBox="0 0 371.43 91.03"><defs><style>.cls-1{fill:#fff;}</style></defs><title>Adecco_logo_white</title><path class="cls-1" d="M136.24,5c-4,0-6.62,2.8-6.62,7V37a21.48,21.48,0,0,0-14.56-5.67c-17.88,0-27.22,16.25-27.22,32.3S97.18,96,115.06,96c6.48,0,11.43-1.85,14.81-5.44A6.21,6.21,0,0,0,136.24,96c4,0,6.62-2.8,6.62-7V12C142.86,7.8,140.2,5,136.24,5ZM115.86,84.06c-10.92,0-14.79-11-14.79-20.41s3.87-20.42,14.79-20.42,14.78,11,14.78,20.42S126.77,84.06,115.86,84.06ZM295.57,43.23A14.23,14.23,0,0,1,302.68,45a10.67,10.67,0,0,0,4.95,1.41,5.85,5.85,0,0,0,5.7-5.83c0-5.5-7.14-9.2-17.76-9.2-19.81,0-28.69,16.22-28.69,32.3S275.76,96,295.57,96C307,96,313,91.21,313,86.52c0-3.49-2.21-5.83-5.49-5.83a9,9,0,0,0-4.32,1.39,14.66,14.66,0,0,1-7.61,2c-12.21,0-15.46-12.83-15.46-20.41S283.36,43.23,295.57,43.23ZM58.93,17.75c-1-2.63-2.86-7.42-8.59-7.42s-7.47,4.55-8.54,7.28c0,.08-9.48,25.39-16.89,45.24H10.72C5.76,62.85,4,66,4,68.66s1.77,5.79,6.72,5.79h9.89c-2.62,7-4.39,11.72-4.39,11.72a12.46,12.46,0,0,0-.93,4.24c0,2.79,2.08,5.62,6.07,5.62,4.19,0,5.55-2.74,6.54-4.74l.22-.43,5.3-14.4s.3-.88.71-2H50.48c5,0,6.75-3,6.75-5.79s-1.77-5.81-6.75-5.81H38.38c3.16-8.61,8.83-24,12-32.57L64.6,69.07s2.67,7.36,2.67,7.36,5.24,14.29,5.24,14.29c.68,1.75,2,5.31,6.81,5.31,4,0,6.09-2.83,6.09-5.62a12.43,12.43,0,0,0-1-4.31C84.45,86.17,58.93,17.75,58.93,17.75ZM243,43.23a14.1,14.1,0,0,1,7.1,1.74,10.78,10.78,0,0,0,5,1.41,5.85,5.85,0,0,0,5.7-5.83c0-5.5-7.14-9.2-17.76-9.2-19.81,0-28.67,16.22-28.67,32.3S223.22,96,243,96c11.45,0,17.44-4.74,17.44-9.43,0-3.49-2.21-5.83-5.5-5.83a9,9,0,0,0-4.32,1.39,14.67,14.67,0,0,1-7.62,2c-12.19,0-15.44-12.83-15.44-20.41S230.84,43.23,243,43.23Zm104.4-11.88c-18.4,0-28,16.25-28,32.3S329,96,347.43,96s28-16.25,28-32.3S365.82,31.35,347.43,31.35Zm0,52.71c-10.92,0-14.78-11-14.78-20.41s3.86-20.42,14.78-20.42,14.79,11,14.79,20.42S358.34,84.06,347.43,84.06Zm-140-21.87c0-15.16-10.27-30.84-27.47-30.84-18.74,0-28.57,16.25-28.57,32.3C151.4,78.56,159,96,180.54,96,192.28,96,206.2,88.4,206.2,82c0-3.93-2.73-6.06-5.28-6.06-1.85,0-3.38,1.21-5.17,2.6-3,2.32-7.06,5.5-15.09,5.5-9,0-15.2-6-15.9-14.93h35.49C205.16,69.13,207.44,66.92,207.44,62.19ZM164.75,58.4c.53-5.21,3.1-15.62,15.18-15.17,9.66,0,13.59,8.53,14.15,15.17Z" transform="translate(-4 -5)"/></svg>