<?xml version="1.0" encoding="utf-8"?>
<!-- Generator: Adobe Illustrator 22.0.1, SVG Export Plug-In . SVG Version: 6.00 Build 0)  -->
<svg version="1.1" id="Layer_1" xmlns="http://www.w3.org/2000/svg" xmlns:xlink="http://www.w3.org/1999/xlink" x="0px" y="0px"
	 viewBox="0 0 379.4 101" style="enable-background:new 0 0 379.4 101;" xml:space="preserve">
<style type="text/css">
	.st0{fill:#D92D27;}
</style>
<path class="st0" d="M136.2,5c-4,0-6.6,2.8-6.6,7c0,0,0,19,0,25.1c-3.4-3.1-8.4-5.7-14.6-5.7c-17.9,0-27.2,16.3-27.2,32.3
	c0,16,9.3,32.3,27.2,32.3c6.5,0,11.4-1.9,14.8-5.4c0.6,3.3,2.9,5.4,6.4,5.4c4,0,6.6-2.8,6.6-7V12C142.9,7.8,140.2,5,136.2,5z
	 M115.9,84.1c-10.9,0-14.8-11-14.8-20.4c0-9.4,3.9-20.4,14.8-20.4c10.9,0,14.8,11,14.8,20.4C130.6,73.1,126.8,84.1,115.9,84.1z
	 M295.6,43.2c3.5,0,5.3,0.9,7.1,1.7c1.4,0.7,2.9,1.4,4.9,1.4c3.4,0,5.7-3,5.7-5.8c0-5.5-7.1-9.2-17.8-9.2
	c-19.8,0-28.7,16.2-28.7,32.3c0,16.1,8.9,32.3,28.7,32.3c11.4,0,17.4-4.7,17.4-9.4c0-3.5-2.2-5.8-5.5-5.8c-1.7,0-3,0.7-4.3,1.4
	c-1.8,0.9-3.8,2-7.6,2c-12.2,0-15.5-12.8-15.5-20.4C280.1,56.1,283.4,43.2,295.6,43.2z M58.9,17.8c-1-2.6-2.9-7.4-8.6-7.4
	c-5.7,0-7.5,4.6-8.5,7.3c0,0.1-9.5,25.4-16.9,45.2H10.7c-5,0-6.7,3.1-6.7,5.8c0,2.8,1.8,5.8,6.7,5.8h9.9c-2.6,7-4.4,11.7-4.4,11.7
	c-0.4,1.1-0.9,2.8-0.9,4.2c0,2.8,2.1,5.6,6.1,5.6c4.2,0,5.5-2.7,6.5-4.7l0.2-0.4l5.3-14.4c0,0,0.3-0.9,0.7-2h16.4c5,0,6.7-3,6.7-5.8
	c0-2.7-1.8-5.8-6.7-5.8H38.4c3.2-8.6,8.8-24,12-32.6c3.4,9.1,14.2,38.8,14.3,38.8c0,0,2.7,7.4,2.7,7.4c0,0,5.2,14.3,5.2,14.3
	c0.7,1.7,2,5.3,6.8,5.3c4,0,6.1-2.8,6.1-5.6c0-1.4-0.5-3.2-1-4.3C84.5,86.2,58.9,17.8,58.9,17.8z M243,43.2c3.5,0,5.3,0.9,7.1,1.7
	c1.4,0.7,2.9,1.4,5,1.4c3.4,0,5.7-3,5.7-5.8c0-5.5-7.1-9.2-17.8-9.2c-19.8,0-28.7,16.2-28.7,32.3c0,16.1,8.9,32.3,28.7,32.3
	c11.5,0,17.4-4.7,17.4-9.4c0-3.5-2.2-5.8-5.5-5.8c-1.7,0-3,0.7-4.3,1.4c-1.8,0.9-3.8,2-7.6,2c-12.2,0-15.4-12.8-15.4-20.4
	C227.6,56.1,230.8,43.2,243,43.2z M347.4,31.3c-18.4,0-28,16.3-28,32.3c0,16,9.6,32.3,28,32.3c18.4,0,28-16.3,28-32.3
	C375.4,47.6,365.8,31.3,347.4,31.3z M347.4,84.1c-10.9,0-14.8-11-14.8-20.4c0-9.4,3.9-20.4,14.8-20.4c10.9,0,14.8,11,14.8,20.4
	C362.2,73.1,358.3,84.1,347.4,84.1z M207.4,62.2c0-15.2-10.3-30.8-27.5-30.8c-18.7,0-28.6,16.3-28.6,32.3c0,14.9,7.6,32.3,29.1,32.3
	c11.7,0,25.7-7.6,25.7-13.9c0-3.9-2.7-6.1-5.3-6.1c-1.9,0-3.4,1.2-5.2,2.6c-3,2.3-7.1,5.5-15.1,5.5c-9,0-15.2-5.9-15.9-14.9
	c3.3,0,35.5,0,35.5,0C205.2,69.1,207.4,66.9,207.4,62.2z M164.8,58.4c0.5-5.2,3.1-15.6,15.2-15.2c9.7,0,13.6,8.5,14.2,15.2H164.8z"
	/>
</svg>
